<?xml version="1.0" ?><svg viewBox="0 0 64 64" xmlns="http://www.w3.org/2000/svg"><defs><style>.cls-1{fill:#0072ff;}</style></defs><title/><g data-name="Layer 2" id="Layer_2"><path class="cls-1" d="M24.92,33.28a4.84,4.84,0,0,1,0-6.8l2.86-2.9a1.73,1.73,0,0,0,0-2.44l-2.61-2.61L24.62,18a2,2,0,0,1,0-2.84l3-3a1.17,1.17,0,0,0-.19-1.8A15.31,15.31,0,0,0,8,12.67c-5.69,6-5.24,15.9.58,21.73L27,52.79a.86.86,0,0,0,1.47-.61V41.34a5.13,5.13,0,0,1,.41-2,2.28,2.28,0,0,0-.43-2.53ZM13.37,29.52l-.85.85a1.42,1.42,0,0,1-2.14-.17l-.31-.43a1.42,1.42,0,0,1,.53-2.08l1.07-.53a1.43,1.43,0,0,1,1.8.49v0A1.43,1.43,0,0,1,13.37,29.52Zm3.75-13.61a7.46,7.46,0,0,0-3.16,2,7,7,0,0,0-1.65,2.9,1.42,1.42,0,0,1-1.53,1L9.58,21.7A1.4,1.4,0,0,1,8.38,20a11,11,0,0,1,2.69-4.86A11.41,11.41,0,0,1,16.19,12a1.4,1.4,0,0,1,1.75,1.16l.17,1.19A1.41,1.41,0,0,1,17.12,15.91Z"/><path class="cls-1" d="M33.54,12.75,31.9,14.39l-.8.8a1.59,1.59,0,0,0,0,2.24l1.52,1.52a4.82,4.82,0,0,1,0,6.8l-3.11,3.15a1.38,1.38,0,0,0,0,1.94l4,4a4.57,4.57,0,0,1,0,6.45l0,.1V55.74a3.9,3.9,0,0,0,1.21-.81L55.54,34.06A15.31,15.31,0,0,0,55,11.93C48.93,6.34,39.39,6.9,33.54,12.75Z"/></g></svg>