<svg xmlns="http://www.w3.org/2000/svg" version="1.1" xmlns:xlink="http://www.w3.org/1999/xlink" xmlns:svgjs="http://svgjs.com/svgjs" width="1920" height="400" preserveAspectRatio="none" viewBox="0 0 1920 400"><g mask="url(&quot;#SvgjsMask1273&quot;)" fill="none"><rect width="1920" height="400" x="0" y="0" fill="url(#SvgjsLinearGradient1274)"></rect><path d="M895.69 417.67C1030.88 405.31 1007.42 123.87 1352.16 123.59 1696.9 123.31 2034.49 255.25 2265.1 255.59" stroke="rgba(23, 187, 104, 0.58)" stroke-width="2"></path><path d="M732.18 413.31C873.35 401.56 851.49 115.08 1213.93 114.99 1576.38 114.9 1932.21 298.17 2177.44 298.99" stroke="rgba(23, 187, 104, 0.58)" stroke-width="2"></path><path d="M708.89 455.68C833.95 454.8 821.85 337.64 1194.56 335.83 1567.27 334.02 1918.18 140.8 2165.91 139.83" stroke="rgba(23, 187, 104, 0.58)" stroke-width="2"></path><path d="M827.74 430.64C1023.04 426.99 1183.8 176.88 1565.55 173.53 1947.31 170.18 2115.81 38.1 2303.37 37.53" stroke="rgba(23, 187, 104, 0.58)" stroke-width="2"></path><path d="M988.95 453.07C1125.69 423.98 1083.27 69.04 1394.04 67.57 1704.81 66.1 1999.33 191.21 2204.23 191.57" stroke="rgba(23, 187, 104, 0.58)" stroke-width="2"></path></g><defs><mask id="SvgjsMask1273"><rect width="1920" height="400" fill="#ffffff"></rect></mask><linearGradient x1="19.79%" y1="-95%" x2="80.21%" y2="195%" gradientUnits="userSpaceOnUse" id="SvgjsLinearGradient1274"><stop stop-color="rgba(14, 42, 71, 1)" offset="0.46"></stop><stop stop-color="rgba(0, 158, 127, 1)" offset="1"></stop></linearGradient></defs></svg>